<?xml version="1.0" encoding="utf-8" standalone="no"?>
<!DOCTYPE svg PUBLIC "-//W3C//DTD SVG 1.1//EN"
  "http://www.w3.org/Graphics/SVG/1.1/DTD/svg11.dtd">
<svg xmlns:xlink="http://www.w3.org/1999/xlink" width="720pt" height="576pt" viewBox="0 0 720 576" xmlns="http://www.w3.org/2000/svg" version="1.1">
 <metadata>
  <rdf:RDF xmlns:dc="http://purl.org/dc/elements/1.1/" xmlns:cc="http://creativecommons.org/ns#" xmlns:rdf="http://www.w3.org/1999/02/22-rdf-syntax-ns#">
   <cc:Work>
    <dc:type rdf:resource="http://purl.org/dc/dcmitype/StillImage"/>
    <dc:date>2025-12-09T14:44:07.253677</dc:date>
    <dc:format>image/svg+xml</dc:format>
    <dc:creator>
     <cc:Agent>
      <dc:title>Matplotlib v3.8.4, https://matplotlib.org/</dc:title>
     </cc:Agent>
    </dc:creator>
   </cc:Work>
  </rdf:RDF>
 </metadata>
 <defs>
  <style type="text/css">*{stroke-linejoin: round; stroke-linecap: butt}</style>
 </defs>
 <g id="figure_1">
  <g id="patch_1">
   <path d="M 0 576 
L 720 576 
L 720 0 
L 0 0 
z
" style="fill: #ffffff"/>
  </g>
  <g id="axes_1">
   <g id="patch_2">
    <path d="M 102.402218 531.16 
L 591.801168 531.16 
L 591.801168 14.753882 
L 102.402218 14.753882 
z
" style="fill: #e5e5e5"/>
   </g>
   <g id="matplotlib.axis_1">
    <g id="xtick_1">
     <g id="line2d_1">
      <path d="M 149.871603 531.16 
L 149.871603 14.753882 
" clip-path="url(#p4ac68a199c)" style="fill: none; stroke: #ffffff; stroke-width: 0.8; stroke-linecap: square"/>
     </g>
     <g id="line2d_2">
      <defs>
       <path id="m68be688786" d="M 0 0 
L 0 3.5 
" style="stroke: #555555; stroke-width: 0.8"/>
      </defs>
      <g>
       <use xlink:href="#m68be688786" x="149.871603" y="531.16" style="fill: #555555; stroke: #555555; stroke-width: 0.8"/>
      </g>
     </g>
     <g id="text_1">
      <!-- −1.0 -->
      <g style="fill: #555555" transform="translate(137.730197 545.758438) scale(0.1 -0.1)">
       <defs>
        <path id="DejaVuSans-2212" d="M 678 2272 
L 4684 2272 
L 4684 1741 
L 678 1741 
L 678 2272 
z
" transform="scale(0.015625)"/>
        <path id="DejaVuSans-31" d="M 794 531 
L 1825 531 
L 1825 4091 
L 703 3866 
L 703 4441 
L 1819 4666 
L 2450 4666 
L 2450 531 
L 3481 531 
L 3481 0 
L 794 0 
L 794 531 
z
" transform="scale(0.015625)"/>
        <path id="DejaVuSans-2e" d="M 684 794 
L 1344 794 
L 1344 0 
L 684 0 
L 684 794 
z
" transform="scale(0.015625)"/>
        <path id="DejaVuSans-30" d="M 2034 4250 
Q 1547 4250 1301 3770 
Q 1056 3291 1056 2328 
Q 1056 1369 1301 889 
Q 1547 409 2034 409 
Q 2525 409 2770 889 
Q 3016 1369 3016 2328 
Q 3016 3291 2770 3770 
Q 2525 4250 2034 4250 
z
M 2034 4750 
Q 2819 4750 3233 4129 
Q 3647 3509 3647 2328 
Q 3647 1150 3233 529 
Q 2819 -91 2034 -91 
Q 1250 -91 836 529 
Q 422 1150 422 2328 
Q 422 3509 836 4129 
Q 1250 4750 2034 4750 
z
" transform="scale(0.015625)"/>
       </defs>
       <use xlink:href="#DejaVuSans-2212"/>
       <use xlink:href="#DejaVuSans-31" x="83.789062"/>
       <use xlink:href="#DejaVuSans-2e" x="147.412109"/>
       <use xlink:href="#DejaVuSans-30" x="179.199219"/>
      </g>
     </g>
    </g>
    <g id="xtick_2">
     <g id="line2d_3">
      <path d="M 248.697422 531.16 
L 248.697422 14.753882 
" clip-path="url(#p4ac68a199c)" style="fill: none; stroke: #ffffff; stroke-width: 0.8; stroke-linecap: square"/>
     </g>
     <g id="line2d_4">
      <g>
       <use xlink:href="#m68be688786" x="248.697422" y="531.16" style="fill: #555555; stroke: #555555; stroke-width: 0.8"/>
      </g>
     </g>
     <g id="text_2">
      <!-- −0.5 -->
      <g style="fill: #555555" transform="translate(236.556016 545.758438) scale(0.1 -0.1)">
       <defs>
        <path id="DejaVuSans-35" d="M 691 4666 
L 3169 4666 
L 3169 4134 
L 1269 4134 
L 1269 2991 
Q 1406 3038 1543 3061 
Q 1681 3084 1819 3084 
Q 2600 3084 3056 2656 
Q 3513 2228 3513 1497 
Q 3513 744 3044 326 
Q 2575 -91 1722 -91 
Q 1428 -91 1123 -41 
Q 819 9 494 109 
L 494 744 
Q 775 591 1075 516 
Q 1375 441 1709 441 
Q 2250 441 2565 725 
Q 2881 1009 2881 1497 
Q 2881 1984 2565 2268 
Q 2250 2553 1709 2553 
Q 1456 2553 1204 2497 
Q 953 2441 691 2322 
L 691 4666 
z
" transform="scale(0.015625)"/>
       </defs>
       <use xlink:href="#DejaVuSans-2212"/>
       <use xlink:href="#DejaVuSans-30" x="83.789062"/>
       <use xlink:href="#DejaVuSans-2e" x="147.412109"/>
       <use xlink:href="#DejaVuSans-35" x="179.199219"/>
      </g>
     </g>
    </g>
    <g id="xtick_3">
     <g id="line2d_5">
      <path d="M 347.523241 531.16 
L 347.523241 14.753882 
" clip-path="url(#p4ac68a199c)" style="fill: none; stroke: #ffffff; stroke-width: 0.8; stroke-linecap: square"/>
     </g>
     <g id="line2d_6">
      <g>
       <use xlink:href="#m68be688786" x="347.523241" y="531.16" style="fill: #555555; stroke: #555555; stroke-width: 0.8"/>
      </g>
     </g>
     <g id="text_3">
      <!-- 0.0 -->
      <g style="fill: #555555" transform="translate(339.571679 545.758438) scale(0.1 -0.1)">
       <use xlink:href="#DejaVuSans-30"/>
       <use xlink:href="#DejaVuSans-2e" x="63.623047"/>
       <use xlink:href="#DejaVuSans-30" x="95.410156"/>
      </g>
     </g>
    </g>
    <g id="xtick_4">
     <g id="line2d_7">
      <path d="M 446.349061 531.16 
L 446.349061 14.753882 
" clip-path="url(#p4ac68a199c)" style="fill: none; stroke: #ffffff; stroke-width: 0.8; stroke-linecap: square"/>
     </g>
     <g id="line2d_8">
      <g>
       <use xlink:href="#m68be688786" x="446.349061" y="531.16" style="fill: #555555; stroke: #555555; stroke-width: 0.8"/>
      </g>
     </g>
     <g id="text_4">
      <!-- 0.5 -->
      <g style="fill: #555555" transform="translate(438.397498 545.758438) scale(0.1 -0.1)">
       <use xlink:href="#DejaVuSans-30"/>
       <use xlink:href="#DejaVuSans-2e" x="63.623047"/>
       <use xlink:href="#DejaVuSans-35" x="95.410156"/>
      </g>
     </g>
    </g>
    <g id="xtick_5">
     <g id="line2d_9">
      <path d="M 545.17488 531.16 
L 545.17488 14.753882 
" clip-path="url(#p4ac68a199c)" style="fill: none; stroke: #ffffff; stroke-width: 0.8; stroke-linecap: square"/>
     </g>
     <g id="line2d_10">
      <g>
       <use xlink:href="#m68be688786" x="545.17488" y="531.16" style="fill: #555555; stroke: #555555; stroke-width: 0.8"/>
      </g>
     </g>
     <g id="text_5">
      <!-- 1.0 -->
      <g style="fill: #555555" transform="translate(537.223317 545.758438) scale(0.1 -0.1)">
       <use xlink:href="#DejaVuSans-31"/>
       <use xlink:href="#DejaVuSans-2e" x="63.623047"/>
       <use xlink:href="#DejaVuSans-30" x="95.410156"/>
      </g>
     </g>
    </g>
    <g id="text_6">
     <!-- PC1 (0.561) -->
     <g style="fill: #555555" transform="translate(311.711068 560.95625) scale(0.12 -0.12)">
      <defs>
       <path id="DejaVuSans-50" d="M 1259 4147 
L 1259 2394 
L 2053 2394 
Q 2494 2394 2734 2622 
Q 2975 2850 2975 3272 
Q 2975 3691 2734 3919 
Q 2494 4147 2053 4147 
L 1259 4147 
z
M 628 4666 
L 2053 4666 
Q 2838 4666 3239 4311 
Q 3641 3956 3641 3272 
Q 3641 2581 3239 2228 
Q 2838 1875 2053 1875 
L 1259 1875 
L 1259 0 
L 628 0 
L 628 4666 
z
" transform="scale(0.015625)"/>
       <path id="DejaVuSans-43" d="M 4122 4306 
L 4122 3641 
Q 3803 3938 3442 4084 
Q 3081 4231 2675 4231 
Q 1875 4231 1450 3742 
Q 1025 3253 1025 2328 
Q 1025 1406 1450 917 
Q 1875 428 2675 428 
Q 3081 428 3442 575 
Q 3803 722 4122 1019 
L 4122 359 
Q 3791 134 3420 21 
Q 3050 -91 2638 -91 
Q 1578 -91 968 557 
Q 359 1206 359 2328 
Q 359 3453 968 4101 
Q 1578 4750 2638 4750 
Q 3056 4750 3426 4639 
Q 3797 4528 4122 4306 
z
" transform="scale(0.015625)"/>
       <path id="DejaVuSans-20" transform="scale(0.015625)"/>
       <path id="DejaVuSans-28" d="M 1984 4856 
Q 1566 4138 1362 3434 
Q 1159 2731 1159 2009 
Q 1159 1288 1364 580 
Q 1569 -128 1984 -844 
L 1484 -844 
Q 1016 -109 783 600 
Q 550 1309 550 2009 
Q 550 2706 781 3412 
Q 1013 4119 1484 4856 
L 1984 4856 
z
" transform="scale(0.015625)"/>
       <path id="DejaVuSans-36" d="M 2113 2584 
Q 1688 2584 1439 2293 
Q 1191 2003 1191 1497 
Q 1191 994 1439 701 
Q 1688 409 2113 409 
Q 2538 409 2786 701 
Q 3034 994 3034 1497 
Q 3034 2003 2786 2293 
Q 2538 2584 2113 2584 
z
M 3366 4563 
L 3366 3988 
Q 3128 4100 2886 4159 
Q 2644 4219 2406 4219 
Q 1781 4219 1451 3797 
Q 1122 3375 1075 2522 
Q 1259 2794 1537 2939 
Q 1816 3084 2150 3084 
Q 2853 3084 3261 2657 
Q 3669 2231 3669 1497 
Q 3669 778 3244 343 
Q 2819 -91 2113 -91 
Q 1303 -91 875 529 
Q 447 1150 447 2328 
Q 447 3434 972 4092 
Q 1497 4750 2381 4750 
Q 2619 4750 2861 4703 
Q 3103 4656 3366 4563 
z
" transform="scale(0.015625)"/>
       <path id="DejaVuSans-29" d="M 513 4856 
L 1013 4856 
Q 1481 4119 1714 3412 
Q 1947 2706 1947 2009 
Q 1947 1309 1714 600 
Q 1481 -109 1013 -844 
L 513 -844 
Q 928 -128 1133 580 
Q 1338 1288 1338 2009 
Q 1338 2731 1133 3434 
Q 928 4138 513 4856 
z
" transform="scale(0.015625)"/>
      </defs>
      <use xlink:href="#DejaVuSans-50"/>
      <use xlink:href="#DejaVuSans-43" x="60.302734"/>
      <use xlink:href="#DejaVuSans-31" x="130.126953"/>
      <use xlink:href="#DejaVuSans-20" x="193.75"/>
      <use xlink:href="#DejaVuSans-28" x="225.537109"/>
      <use xlink:href="#DejaVuSans-30" x="264.550781"/>
      <use xlink:href="#DejaVuSans-2e" x="328.173828"/>
      <use xlink:href="#DejaVuSans-35" x="359.960938"/>
      <use xlink:href="#DejaVuSans-36" x="423.583984"/>
      <use xlink:href="#DejaVuSans-31" x="487.207031"/>
      <use xlink:href="#DejaVuSans-29" x="550.830078"/>
     </g>
    </g>
   </g>
   <g id="matplotlib.axis_2">
    <g id="ytick_1">
     <g id="line2d_11">
      <path d="M 102.402218 435.569534 
L 591.801168 435.569534 
" clip-path="url(#p4ac68a199c)" style="fill: none; stroke: #ffffff; stroke-width: 0.8; stroke-linecap: square"/>
     </g>
     <g id="line2d_12">
      <defs>
       <path id="mebeff95b57" d="M 0 0 
L -3.5 0 
" style="stroke: #555555; stroke-width: 0.8"/>
      </defs>
      <g>
       <use xlink:href="#mebeff95b57" x="102.402218" y="435.569534" style="fill: #555555; stroke: #555555; stroke-width: 0.8"/>
      </g>
     </g>
     <g id="text_7">
      <!-- −0.5 -->
      <g style="fill: #555555" transform="translate(71.119405 439.368753) scale(0.1 -0.1)">
       <use xlink:href="#DejaVuSans-2212"/>
       <use xlink:href="#DejaVuSans-30" x="83.789062"/>
       <use xlink:href="#DejaVuSans-2e" x="147.412109"/>
       <use xlink:href="#DejaVuSans-35" x="179.199219"/>
      </g>
     </g>
    </g>
    <g id="ytick_2">
     <g id="line2d_13">
      <path d="M 102.402218 339.052488 
L 591.801168 339.052488 
" clip-path="url(#p4ac68a199c)" style="fill: none; stroke: #ffffff; stroke-width: 0.8; stroke-linecap: square"/>
     </g>
     <g id="line2d_14">
      <g>
       <use xlink:href="#mebeff95b57" x="102.402218" y="339.052488" style="fill: #555555; stroke: #555555; stroke-width: 0.8"/>
      </g>
     </g>
     <g id="text_8">
      <!-- 0.0 -->
      <g style="fill: #555555" transform="translate(79.499093 342.851707) scale(0.1 -0.1)">
       <use xlink:href="#DejaVuSans-30"/>
       <use xlink:href="#DejaVuSans-2e" x="63.623047"/>
       <use xlink:href="#DejaVuSans-30" x="95.410156"/>
      </g>
     </g>
    </g>
    <g id="ytick_3">
     <g id="line2d_15">
      <path d="M 102.402218 242.535441 
L 591.801168 242.535441 
" clip-path="url(#p4ac68a199c)" style="fill: none; stroke: #ffffff; stroke-width: 0.8; stroke-linecap: square"/>
     </g>
     <g id="line2d_16">
      <g>
       <use xlink:href="#mebeff95b57" x="102.402218" y="242.535441" style="fill: #555555; stroke: #555555; stroke-width: 0.8"/>
      </g>
     </g>
     <g id="text_9">
      <!-- 0.5 -->
      <g style="fill: #555555" transform="translate(79.499093 246.33466) scale(0.1 -0.1)">
       <use xlink:href="#DejaVuSans-30"/>
       <use xlink:href="#DejaVuSans-2e" x="63.623047"/>
       <use xlink:href="#DejaVuSans-35" x="95.410156"/>
      </g>
     </g>
    </g>
    <g id="ytick_4">
     <g id="line2d_17">
      <path d="M 102.402218 146.018394 
L 591.801168 146.018394 
" clip-path="url(#p4ac68a199c)" style="fill: none; stroke: #ffffff; stroke-width: 0.8; stroke-linecap: square"/>
     </g>
     <g id="line2d_18">
      <g>
       <use xlink:href="#mebeff95b57" x="102.402218" y="146.018394" style="fill: #555555; stroke: #555555; stroke-width: 0.8"/>
      </g>
     </g>
     <g id="text_10">
      <!-- 1.0 -->
      <g style="fill: #555555" transform="translate(79.499093 149.817613) scale(0.1 -0.1)">
       <use xlink:href="#DejaVuSans-31"/>
       <use xlink:href="#DejaVuSans-2e" x="63.623047"/>
       <use xlink:href="#DejaVuSans-30" x="95.410156"/>
      </g>
     </g>
    </g>
    <g id="ytick_5">
     <g id="line2d_19">
      <path d="M 102.402218 49.501348 
L 591.801168 49.501348 
" clip-path="url(#p4ac68a199c)" style="fill: none; stroke: #ffffff; stroke-width: 0.8; stroke-linecap: square"/>
     </g>
     <g id="line2d_20">
      <g>
       <use xlink:href="#mebeff95b57" x="102.402218" y="49.501348" style="fill: #555555; stroke: #555555; stroke-width: 0.8"/>
      </g>
     </g>
     <g id="text_11">
      <!-- 1.5 -->
      <g style="fill: #555555" transform="translate(79.499093 53.300567) scale(0.1 -0.1)">
       <use xlink:href="#DejaVuSans-31"/>
       <use xlink:href="#DejaVuSans-2e" x="63.623047"/>
       <use xlink:href="#DejaVuSans-35" x="95.410156"/>
      </g>
     </g>
    </g>
    <g id="text_12">
     <!-- PC2 (0.124) -->
     <g style="fill: #555555" transform="translate(64.62378 308.347566) rotate(-90) scale(0.12 -0.12)">
      <defs>
       <path id="DejaVuSans-32" d="M 1228 531 
L 3431 531 
L 3431 0 
L 469 0 
L 469 531 
Q 828 903 1448 1529 
Q 2069 2156 2228 2338 
Q 2531 2678 2651 2914 
Q 2772 3150 2772 3378 
Q 2772 3750 2511 3984 
Q 2250 4219 1831 4219 
Q 1534 4219 1204 4116 
Q 875 4013 500 3803 
L 500 4441 
Q 881 4594 1212 4672 
Q 1544 4750 1819 4750 
Q 2544 4750 2975 4387 
Q 3406 4025 3406 3419 
Q 3406 3131 3298 2873 
Q 3191 2616 2906 2266 
Q 2828 2175 2409 1742 
Q 1991 1309 1228 531 
z
" transform="scale(0.015625)"/>
       <path id="DejaVuSans-34" d="M 2419 4116 
L 825 1625 
L 2419 1625 
L 2419 4116 
z
M 2253 4666 
L 3047 4666 
L 3047 1625 
L 3713 1625 
L 3713 1100 
L 3047 1100 
L 3047 0 
L 2419 0 
L 2419 1100 
L 313 1100 
L 313 1709 
L 2253 4666 
z
" transform="scale(0.015625)"/>
      </defs>
      <use xlink:href="#DejaVuSans-50"/>
      <use xlink:href="#DejaVuSans-43" x="60.302734"/>
      <use xlink:href="#DejaVuSans-32" x="130.126953"/>
      <use xlink:href="#DejaVuSans-20" x="193.75"/>
      <use xlink:href="#DejaVuSans-28" x="225.537109"/>
      <use xlink:href="#DejaVuSans-30" x="264.550781"/>
      <use xlink:href="#DejaVuSans-2e" x="328.173828"/>
      <use xlink:href="#DejaVuSans-31" x="359.960938"/>
      <use xlink:href="#DejaVuSans-32" x="423.583984"/>
      <use xlink:href="#DejaVuSans-34" x="487.207031"/>
      <use xlink:href="#DejaVuSans-29" x="550.830078"/>
     </g>
    </g>
   </g>
   <g id="patch_3">
    <path d="M 228.44174 53.906949 
L 234.545959 60.856701 
L 232.075261 61.840858 
L 347.797763 338.943137 
L 347.248719 339.161839 
L 231.526217 62.05956 
L 229.055518 63.043718 
z
" clip-path="url(#p4ac68a199c)" style="fill: #808080; opacity: 0.8; stroke: #808080; stroke-width: 0.5; stroke-linejoin: miter"/>
   </g>
   <g id="patch_4">
    <path d="M 457.255078 245.879054 
L 452.488092 253.763537 
L 450.737387 251.796916 
L 347.717764 339.271001 
L 347.328719 338.833974 
L 450.348342 251.359889 
L 448.597637 249.393268 
z
" clip-path="url(#p4ac68a199c)" style="fill: #808080; opacity: 0.8; stroke: #808080; stroke-width: 0.5; stroke-linejoin: miter"/>
   </g>
   <g id="patch_5">
    <path d="M 418.676801 478.785192 
L 412.06163 472.296728 
L 414.450787 471.136321 
L 347.257779 339.181422 
L 347.788703 338.923554 
L 414.981711 470.878453 
L 417.370869 469.718045 
z
" clip-path="url(#p4ac68a199c)" style="fill: #808080; opacity: 0.8; stroke: #808080; stroke-width: 0.5; stroke-linejoin: miter"/>
   </g>
   <g id="patch_6">
    <path d="M 124.647625 288.486903 
L 133.982119 287.632081 
L 133.378338 290.170449 
L 347.590328 338.770447 
L 347.456155 339.334529 
L 133.244164 290.73453 
L 132.640382 293.272898 
z
" clip-path="url(#p4ac68a199c)" style="fill: #808080; opacity: 0.8; stroke: #808080; stroke-width: 0.5; stroke-linejoin: miter"/>
   </g>
   <g id="patch_7">
    <path d="M 450.845842 507.686995 
L 443.734722 501.719837 
L 446.024395 500.381734 
L 347.268833 339.201166 
L 347.77765 338.90381 
L 446.533211 500.084377 
L 448.822884 498.746274 
z
" clip-path="url(#p4ac68a199c)" style="fill: #808080; opacity: 0.8; stroke: #808080; stroke-width: 0.5; stroke-linejoin: miter"/>
   </g>
   <g id="patch_8">
    <path d="M 168.340728 346.086145 
L 177.108809 342.844113 
L 177.21597 345.44797 
L 347.511335 338.76317 
L 347.535148 339.341805 
L 177.239783 346.026606 
L 177.346944 348.630463 
z
" clip-path="url(#p4ac68a199c)" style="fill: #808080; opacity: 0.8; stroke: #808080; stroke-width: 0.5; stroke-linejoin: miter"/>
   </g>
   <g id="patch_9">
    <path d="M 160.18083 267.726424 
L 169.544572 268.183693 
L 168.575419 270.611685 
L 347.630925 338.782711 
L 347.415558 339.322265 
L 168.360052 271.151239 
L 167.390899 273.579231 
z
" clip-path="url(#p4ac68a199c)" style="fill: #808080; opacity: 0.8; stroke: #808080; stroke-width: 0.5; stroke-linejoin: miter"/>
   </g>
   <g id="patch_10">
    <path d="M 416.553697 432.922072 
L 408.957175 427.555739 
L 411.124431 426.035565 
L 347.282435 339.221396 
L 347.764048 338.88358 
L 411.606043 425.697749 
L 413.7733 424.177575 
z
" clip-path="url(#p4ac68a199c)" style="fill: #808080; opacity: 0.8; stroke: #808080; stroke-width: 0.5; stroke-linejoin: miter"/>
   </g>
   <g id="patch_11">
    <path d="M 569.555761 178.136691 
L 564.179996 185.638392 
L 562.589905 183.545691 
L 347.699918 339.28501 
L 347.346565 338.819965 
L 562.236551 183.080647 
L 560.64646 180.987946 
z
" clip-path="url(#p4ac68a199c)" style="fill: #808080; opacity: 0.8; stroke: #808080; stroke-width: 0.5; stroke-linejoin: miter"/>
   </g>
   <g id="patch_12">
    <path d="M 559.264202 38.226887 
L 556.668885 47.02548 
L 554.470017 45.549242 
L 347.76756 339.216514 
L 347.278923 338.888461 
L 553.981379 45.221189 
L 551.782511 43.74495 
z
" clip-path="url(#p4ac68a199c)" style="fill: #808080; opacity: 0.8; stroke: #808080; stroke-width: 0.5; stroke-linejoin: miter"/>
   </g>
   <g id="line2d_21"/>
   <g id="line2d_22">
    <path d="M 102.402218 339.052488 
L 591.801168 339.052488 
" clip-path="url(#p4ac68a199c)" style="fill: none; stroke-dasharray: 5.55,2.4; stroke-dashoffset: 0; stroke: #808080; stroke-opacity: 0.5; stroke-width: 1.5"/>
   </g>
   <g id="line2d_23">
    <path d="M 347.523241 531.16 
L 347.523241 14.753882 
" clip-path="url(#p4ac68a199c)" style="fill: none; stroke-dasharray: 5.55,2.4; stroke-dashoffset: 0; stroke: #808080; stroke-opacity: 0.5; stroke-width: 1.5"/>
   </g>
   <g id="patch_13">
    <path d="M 102.402218 531.16 
L 102.402218 14.753882 
" style="fill: none; stroke: #ffffff; stroke-linejoin: miter; stroke-linecap: square"/>
   </g>
   <g id="patch_14">
    <path d="M 591.801168 531.16 
L 591.801168 14.753882 
" style="fill: none; stroke: #ffffff; stroke-linejoin: miter; stroke-linecap: square"/>
   </g>
   <g id="patch_15">
    <path d="M 102.402218 531.16 
L 591.801168 531.16 
" style="fill: none; stroke: #ffffff; stroke-linejoin: miter; stroke-linecap: square"/>
   </g>
   <g id="patch_16">
    <path d="M 102.402218 14.753882 
L 591.801168 14.753882 
" style="fill: none; stroke: #ffffff; stroke-linejoin: miter; stroke-linecap: square"/>
   </g>
   <g id="text_13">
    <!-- C18H37NO2_Threo-sphingosine, (-)-_0.43 -->
    <g style="fill: #ff0000" transform="translate(104.469113 36.860294) scale(0.1 -0.1)">
     <defs>
      <path id="DejaVuSans-Bold-43" d="M 4288 256 
Q 3956 84 3597 -3 
Q 3238 -91 2847 -91 
Q 1681 -91 1000 561 
Q 319 1213 319 2328 
Q 319 3447 1000 4098 
Q 1681 4750 2847 4750 
Q 3238 4750 3597 4662 
Q 3956 4575 4288 4403 
L 4288 3438 
Q 3953 3666 3628 3772 
Q 3303 3878 2944 3878 
Q 2300 3878 1931 3465 
Q 1563 3053 1563 2328 
Q 1563 1606 1931 1193 
Q 2300 781 2944 781 
Q 3303 781 3628 887 
Q 3953 994 4288 1222 
L 4288 256 
z
" transform="scale(0.015625)"/>
      <path id="DejaVuSans-Bold-31" d="M 750 831 
L 1813 831 
L 1813 3847 
L 722 3622 
L 722 4441 
L 1806 4666 
L 2950 4666 
L 2950 831 
L 4013 831 
L 4013 0 
L 750 0 
L 750 831 
z
" transform="scale(0.015625)"/>
      <path id="DejaVuSans-Bold-38" d="M 2228 2088 
Q 1891 2088 1709 1903 
Q 1528 1719 1528 1375 
Q 1528 1031 1709 848 
Q 1891 666 2228 666 
Q 2563 666 2741 848 
Q 2919 1031 2919 1375 
Q 2919 1722 2741 1905 
Q 2563 2088 2228 2088 
z
M 1350 2484 
Q 925 2613 709 2878 
Q 494 3144 494 3541 
Q 494 4131 934 4440 
Q 1375 4750 2228 4750 
Q 3075 4750 3515 4442 
Q 3956 4134 3956 3541 
Q 3956 3144 3739 2878 
Q 3522 2613 3097 2484 
Q 3572 2353 3814 2058 
Q 4056 1763 4056 1313 
Q 4056 619 3595 264 
Q 3134 -91 2228 -91 
Q 1319 -91 855 264 
Q 391 619 391 1313 
Q 391 1763 633 2058 
Q 875 2353 1350 2484 
z
M 1631 3419 
Q 1631 3141 1786 2991 
Q 1941 2841 2228 2841 
Q 2509 2841 2662 2991 
Q 2816 3141 2816 3419 
Q 2816 3697 2662 3845 
Q 2509 3994 2228 3994 
Q 1941 3994 1786 3844 
Q 1631 3694 1631 3419 
z
" transform="scale(0.015625)"/>
      <path id="DejaVuSans-Bold-48" d="M 588 4666 
L 1791 4666 
L 1791 2888 
L 3566 2888 
L 3566 4666 
L 4769 4666 
L 4769 0 
L 3566 0 
L 3566 1978 
L 1791 1978 
L 1791 0 
L 588 0 
L 588 4666 
z
" transform="scale(0.015625)"/>
      <path id="DejaVuSans-Bold-33" d="M 2981 2516 
Q 3453 2394 3698 2092 
Q 3944 1791 3944 1325 
Q 3944 631 3412 270 
Q 2881 -91 1863 -91 
Q 1503 -91 1142 -33 
Q 781 25 428 141 
L 428 1069 
Q 766 900 1098 814 
Q 1431 728 1753 728 
Q 2231 728 2486 893 
Q 2741 1059 2741 1369 
Q 2741 1688 2480 1852 
Q 2219 2016 1709 2016 
L 1228 2016 
L 1228 2791 
L 1734 2791 
Q 2188 2791 2409 2933 
Q 2631 3075 2631 3366 
Q 2631 3634 2415 3781 
Q 2200 3928 1806 3928 
Q 1516 3928 1219 3862 
Q 922 3797 628 3669 
L 628 4550 
Q 984 4650 1334 4700 
Q 1684 4750 2022 4750 
Q 2931 4750 3382 4451 
Q 3834 4153 3834 3553 
Q 3834 3144 3618 2883 
Q 3403 2622 2981 2516 
z
" transform="scale(0.015625)"/>
      <path id="DejaVuSans-Bold-37" d="M 428 4666 
L 3944 4666 
L 3944 3988 
L 2125 0 
L 953 0 
L 2675 3781 
L 428 3781 
L 428 4666 
z
" transform="scale(0.015625)"/>
      <path id="DejaVuSans-Bold-4e" d="M 588 4666 
L 1931 4666 
L 3628 1466 
L 3628 4666 
L 4769 4666 
L 4769 0 
L 3425 0 
L 1728 3200 
L 1728 0 
L 588 0 
L 588 4666 
z
" transform="scale(0.015625)"/>
      <path id="DejaVuSans-Bold-4f" d="M 2719 3878 
Q 2169 3878 1866 3472 
Q 1563 3066 1563 2328 
Q 1563 1594 1866 1187 
Q 2169 781 2719 781 
Q 3272 781 3575 1187 
Q 3878 1594 3878 2328 
Q 3878 3066 3575 3472 
Q 3272 3878 2719 3878 
z
M 2719 4750 
Q 3844 4750 4481 4106 
Q 5119 3463 5119 2328 
Q 5119 1197 4481 553 
Q 3844 -91 2719 -91 
Q 1597 -91 958 553 
Q 319 1197 319 2328 
Q 319 3463 958 4106 
Q 1597 4750 2719 4750 
z
" transform="scale(0.015625)"/>
      <path id="DejaVuSans-Bold-32" d="M 1844 884 
L 3897 884 
L 3897 0 
L 506 0 
L 506 884 
L 2209 2388 
Q 2438 2594 2547 2791 
Q 2656 2988 2656 3200 
Q 2656 3528 2436 3728 
Q 2216 3928 1850 3928 
Q 1569 3928 1234 3808 
Q 900 3688 519 3450 
L 519 4475 
Q 925 4609 1322 4679 
Q 1719 4750 2100 4750 
Q 2938 4750 3402 4381 
Q 3866 4013 3866 3353 
Q 3866 2972 3669 2642 
Q 3472 2313 2841 1759 
L 1844 884 
z
" transform="scale(0.015625)"/>
      <path id="DejaVuSans-Bold-5f" d="M 3200 -916 
L 3200 -1509 
L 0 -1509 
L 0 -916 
L 3200 -916 
z
" transform="scale(0.015625)"/>
      <path id="DejaVuSans-Bold-54" d="M 31 4666 
L 4331 4666 
L 4331 3756 
L 2784 3756 
L 2784 0 
L 1581 0 
L 1581 3756 
L 31 3756 
L 31 4666 
z
" transform="scale(0.015625)"/>
      <path id="DejaVuSans-Bold-68" d="M 4056 2131 
L 4056 0 
L 2931 0 
L 2931 347 
L 2931 1625 
Q 2931 2084 2911 2256 
Q 2891 2428 2841 2509 
Q 2775 2619 2662 2680 
Q 2550 2741 2406 2741 
Q 2056 2741 1856 2470 
Q 1656 2200 1656 1722 
L 1656 0 
L 538 0 
L 538 4863 
L 1656 4863 
L 1656 2988 
Q 1909 3294 2193 3439 
Q 2478 3584 2822 3584 
Q 3428 3584 3742 3212 
Q 4056 2841 4056 2131 
z
" transform="scale(0.015625)"/>
      <path id="DejaVuSans-Bold-72" d="M 3138 2547 
Q 2991 2616 2845 2648 
Q 2700 2681 2553 2681 
Q 2122 2681 1889 2404 
Q 1656 2128 1656 1613 
L 1656 0 
L 538 0 
L 538 3500 
L 1656 3500 
L 1656 2925 
Q 1872 3269 2151 3426 
Q 2431 3584 2822 3584 
Q 2878 3584 2943 3579 
Q 3009 3575 3134 3559 
L 3138 2547 
z
" transform="scale(0.015625)"/>
      <path id="DejaVuSans-Bold-65" d="M 4031 1759 
L 4031 1441 
L 1416 1441 
Q 1456 1047 1700 850 
Q 1944 653 2381 653 
Q 2734 653 3104 758 
Q 3475 863 3866 1075 
L 3866 213 
Q 3469 63 3072 -14 
Q 2675 -91 2278 -91 
Q 1328 -91 801 392 
Q 275 875 275 1747 
Q 275 2603 792 3093 
Q 1309 3584 2216 3584 
Q 3041 3584 3536 3087 
Q 4031 2591 4031 1759 
z
M 2881 2131 
Q 2881 2450 2695 2645 
Q 2509 2841 2209 2841 
Q 1884 2841 1681 2658 
Q 1478 2475 1428 2131 
L 2881 2131 
z
" transform="scale(0.015625)"/>
      <path id="DejaVuSans-Bold-6f" d="M 2203 2784 
Q 1831 2784 1636 2517 
Q 1441 2250 1441 1747 
Q 1441 1244 1636 976 
Q 1831 709 2203 709 
Q 2569 709 2762 976 
Q 2956 1244 2956 1747 
Q 2956 2250 2762 2517 
Q 2569 2784 2203 2784 
z
M 2203 3584 
Q 3106 3584 3614 3096 
Q 4122 2609 4122 1747 
Q 4122 884 3614 396 
Q 3106 -91 2203 -91 
Q 1297 -91 786 396 
Q 275 884 275 1747 
Q 275 2609 786 3096 
Q 1297 3584 2203 3584 
z
" transform="scale(0.015625)"/>
      <path id="DejaVuSans-Bold-2d" d="M 347 2297 
L 2309 2297 
L 2309 1388 
L 347 1388 
L 347 2297 
z
" transform="scale(0.015625)"/>
      <path id="DejaVuSans-Bold-73" d="M 3272 3391 
L 3272 2541 
Q 2913 2691 2578 2766 
Q 2244 2841 1947 2841 
Q 1628 2841 1473 2761 
Q 1319 2681 1319 2516 
Q 1319 2381 1436 2309 
Q 1553 2238 1856 2203 
L 2053 2175 
Q 2913 2066 3209 1816 
Q 3506 1566 3506 1031 
Q 3506 472 3093 190 
Q 2681 -91 1863 -91 
Q 1516 -91 1145 -36 
Q 775 19 384 128 
L 384 978 
Q 719 816 1070 734 
Q 1422 653 1784 653 
Q 2113 653 2278 743 
Q 2444 834 2444 1013 
Q 2444 1163 2330 1236 
Q 2216 1309 1875 1350 
L 1678 1375 
Q 931 1469 631 1722 
Q 331 1975 331 2491 
Q 331 3047 712 3315 
Q 1094 3584 1881 3584 
Q 2191 3584 2531 3537 
Q 2872 3491 3272 3391 
z
" transform="scale(0.015625)"/>
      <path id="DejaVuSans-Bold-70" d="M 1656 506 
L 1656 -1331 
L 538 -1331 
L 538 3500 
L 1656 3500 
L 1656 2988 
Q 1888 3294 2169 3439 
Q 2450 3584 2816 3584 
Q 3463 3584 3878 3070 
Q 4294 2556 4294 1747 
Q 4294 938 3878 423 
Q 3463 -91 2816 -91 
Q 2450 -91 2169 54 
Q 1888 200 1656 506 
z
M 2400 2772 
Q 2041 2772 1848 2508 
Q 1656 2244 1656 1747 
Q 1656 1250 1848 986 
Q 2041 722 2400 722 
Q 2759 722 2948 984 
Q 3138 1247 3138 1747 
Q 3138 2247 2948 2509 
Q 2759 2772 2400 2772 
z
" transform="scale(0.015625)"/>
      <path id="DejaVuSans-Bold-69" d="M 538 3500 
L 1656 3500 
L 1656 0 
L 538 0 
L 538 3500 
z
M 538 4863 
L 1656 4863 
L 1656 3950 
L 538 3950 
L 538 4863 
z
" transform="scale(0.015625)"/>
      <path id="DejaVuSans-Bold-6e" d="M 4056 2131 
L 4056 0 
L 2931 0 
L 2931 347 
L 2931 1631 
Q 2931 2084 2911 2256 
Q 2891 2428 2841 2509 
Q 2775 2619 2662 2680 
Q 2550 2741 2406 2741 
Q 2056 2741 1856 2470 
Q 1656 2200 1656 1722 
L 1656 0 
L 538 0 
L 538 3500 
L 1656 3500 
L 1656 2988 
Q 1909 3294 2193 3439 
Q 2478 3584 2822 3584 
Q 3428 3584 3742 3212 
Q 4056 2841 4056 2131 
z
" transform="scale(0.015625)"/>
      <path id="DejaVuSans-Bold-67" d="M 2919 594 
Q 2688 288 2409 144 
Q 2131 0 1766 0 
Q 1125 0 706 504 
Q 288 1009 288 1791 
Q 288 2575 706 3076 
Q 1125 3578 1766 3578 
Q 2131 3578 2409 3434 
Q 2688 3291 2919 2981 
L 2919 3500 
L 4044 3500 
L 4044 353 
Q 4044 -491 3511 -936 
Q 2978 -1381 1966 -1381 
Q 1638 -1381 1331 -1331 
Q 1025 -1281 716 -1178 
L 716 -306 
Q 1009 -475 1290 -558 
Q 1572 -641 1856 -641 
Q 2406 -641 2662 -400 
Q 2919 -159 2919 353 
L 2919 594 
z
M 2181 2772 
Q 1834 2772 1640 2515 
Q 1447 2259 1447 1791 
Q 1447 1309 1634 1061 
Q 1822 813 2181 813 
Q 2531 813 2725 1069 
Q 2919 1325 2919 1791 
Q 2919 2259 2725 2515 
Q 2531 2772 2181 2772 
z
" transform="scale(0.015625)"/>
      <path id="DejaVuSans-Bold-2c" d="M 653 1209 
L 1778 1209 
L 1778 256 
L 1006 -909 
L 341 -909 
L 653 256 
L 653 1209 
z
" transform="scale(0.015625)"/>
      <path id="DejaVuSans-Bold-20" transform="scale(0.015625)"/>
      <path id="DejaVuSans-Bold-28" d="M 2413 -844 
L 1484 -844 
Q 1006 -72 778 623 
Q 550 1319 550 2003 
Q 550 2688 779 3389 
Q 1009 4091 1484 4856 
L 2413 4856 
Q 2013 4116 1813 3408 
Q 1613 2700 1613 2009 
Q 1613 1319 1811 609 
Q 2009 -100 2413 -844 
z
" transform="scale(0.015625)"/>
      <path id="DejaVuSans-Bold-29" d="M 513 -844 
Q 913 -100 1113 609 
Q 1313 1319 1313 2009 
Q 1313 2700 1113 3408 
Q 913 4116 513 4856 
L 1441 4856 
Q 1916 4091 2145 3389 
Q 2375 2688 2375 2003 
Q 2375 1319 2147 623 
Q 1919 -72 1441 -844 
L 513 -844 
z
" transform="scale(0.015625)"/>
      <path id="DejaVuSans-Bold-30" d="M 2944 2338 
Q 2944 3213 2780 3570 
Q 2616 3928 2228 3928 
Q 1841 3928 1675 3570 
Q 1509 3213 1509 2338 
Q 1509 1453 1675 1090 
Q 1841 728 2228 728 
Q 2613 728 2778 1090 
Q 2944 1453 2944 2338 
z
M 4147 2328 
Q 4147 1169 3647 539 
Q 3147 -91 2228 -91 
Q 1306 -91 806 539 
Q 306 1169 306 2328 
Q 306 3491 806 4120 
Q 1306 4750 2228 4750 
Q 3147 4750 3647 4120 
Q 4147 3491 4147 2328 
z
" transform="scale(0.015625)"/>
      <path id="DejaVuSans-Bold-2e" d="M 653 1209 
L 1778 1209 
L 1778 0 
L 653 0 
L 653 1209 
z
" transform="scale(0.015625)"/>
      <path id="DejaVuSans-Bold-34" d="M 2356 3675 
L 1038 1722 
L 2356 1722 
L 2356 3675 
z
M 2156 4666 
L 3494 4666 
L 3494 1722 
L 4159 1722 
L 4159 850 
L 3494 850 
L 3494 0 
L 2356 0 
L 2356 850 
L 288 850 
L 288 1881 
L 2156 4666 
z
" transform="scale(0.015625)"/>
     </defs>
     <use xlink:href="#DejaVuSans-Bold-43"/>
     <use xlink:href="#DejaVuSans-Bold-31" x="73.388672"/>
     <use xlink:href="#DejaVuSans-Bold-38" x="142.96875"/>
     <use xlink:href="#DejaVuSans-Bold-48" x="212.548828"/>
     <use xlink:href="#DejaVuSans-Bold-33" x="296.240234"/>
     <use xlink:href="#DejaVuSans-Bold-37" x="365.820312"/>
     <use xlink:href="#DejaVuSans-Bold-4e" x="435.400391"/>
     <use xlink:href="#DejaVuSans-Bold-4f" x="519.091797"/>
     <use xlink:href="#DejaVuSans-Bold-32" x="604.101562"/>
     <use xlink:href="#DejaVuSans-Bold-5f" x="673.681641"/>
     <use xlink:href="#DejaVuSans-Bold-54" x="723.681641"/>
     <use xlink:href="#DejaVuSans-Bold-68" x="791.894531"/>
     <use xlink:href="#DejaVuSans-Bold-72" x="863.085938"/>
     <use xlink:href="#DejaVuSans-Bold-65" x="912.402344"/>
     <use xlink:href="#DejaVuSans-Bold-6f" x="980.224609"/>
     <use xlink:href="#DejaVuSans-Bold-2d" x="1048.925781"/>
     <use xlink:href="#DejaVuSans-Bold-73" x="1090.429688"/>
     <use xlink:href="#DejaVuSans-Bold-70" x="1149.951172"/>
     <use xlink:href="#DejaVuSans-Bold-68" x="1221.533203"/>
     <use xlink:href="#DejaVuSans-Bold-69" x="1292.724609"/>
     <use xlink:href="#DejaVuSans-Bold-6e" x="1327.001953"/>
     <use xlink:href="#DejaVuSans-Bold-67" x="1398.193359"/>
     <use xlink:href="#DejaVuSans-Bold-6f" x="1469.775391"/>
     <use xlink:href="#DejaVuSans-Bold-73" x="1538.476562"/>
     <use xlink:href="#DejaVuSans-Bold-69" x="1597.998047"/>
     <use xlink:href="#DejaVuSans-Bold-6e" x="1632.275391"/>
     <use xlink:href="#DejaVuSans-Bold-65" x="1703.466797"/>
     <use xlink:href="#DejaVuSans-Bold-2c" x="1771.289062"/>
     <use xlink:href="#DejaVuSans-Bold-20" x="1809.277344"/>
     <use xlink:href="#DejaVuSans-Bold-28" x="1844.091797"/>
     <use xlink:href="#DejaVuSans-Bold-2d" x="1889.794922"/>
     <use xlink:href="#DejaVuSans-Bold-29" x="1931.298828"/>
     <use xlink:href="#DejaVuSans-Bold-2d" x="1977.001953"/>
     <use xlink:href="#DejaVuSans-Bold-5f" x="2018.505859"/>
     <use xlink:href="#DejaVuSans-Bold-30" x="2068.505859"/>
     <use xlink:href="#DejaVuSans-Bold-2e" x="2138.085938"/>
     <use xlink:href="#DejaVuSans-Bold-34" x="2176.074219"/>
     <use xlink:href="#DejaVuSans-Bold-33" x="2245.654297"/>
    </g>
   </g>
   <g id="text_14">
    <!-- C9H14O4_cis-2-Carboxycyclohexyl-acetic acid_-1.37 -->
    <g style="fill: #ff0000" transform="translate(315.392483 245.451307) scale(0.1 -0.1)">
     <defs>
      <path id="DejaVuSans-Bold-39" d="M 641 103 
L 641 966 
Q 928 831 1190 764 
Q 1453 697 1709 697 
Q 2247 697 2547 995 
Q 2847 1294 2900 1881 
Q 2688 1725 2447 1647 
Q 2206 1569 1925 1569 
Q 1209 1569 770 1986 
Q 331 2403 331 3084 
Q 331 3838 820 4291 
Q 1309 4744 2131 4744 
Q 3044 4744 3544 4128 
Q 4044 3513 4044 2388 
Q 4044 1231 3459 570 
Q 2875 -91 1856 -91 
Q 1528 -91 1228 -42 
Q 928 6 641 103 
z
M 2125 2350 
Q 2441 2350 2600 2554 
Q 2759 2759 2759 3169 
Q 2759 3575 2600 3781 
Q 2441 3988 2125 3988 
Q 1809 3988 1650 3781 
Q 1491 3575 1491 3169 
Q 1491 2759 1650 2554 
Q 1809 2350 2125 2350 
z
" transform="scale(0.015625)"/>
      <path id="DejaVuSans-Bold-63" d="M 3366 3391 
L 3366 2478 
Q 3138 2634 2908 2709 
Q 2678 2784 2431 2784 
Q 1963 2784 1702 2511 
Q 1441 2238 1441 1747 
Q 1441 1256 1702 982 
Q 1963 709 2431 709 
Q 2694 709 2930 787 
Q 3166 866 3366 1019 
L 3366 103 
Q 3103 6 2833 -42 
Q 2563 -91 2291 -91 
Q 1344 -91 809 395 
Q 275 881 275 1747 
Q 275 2613 809 3098 
Q 1344 3584 2291 3584 
Q 2566 3584 2833 3536 
Q 3100 3488 3366 3391 
z
" transform="scale(0.015625)"/>
      <path id="DejaVuSans-Bold-61" d="M 2106 1575 
Q 1756 1575 1579 1456 
Q 1403 1338 1403 1106 
Q 1403 894 1545 773 
Q 1688 653 1941 653 
Q 2256 653 2472 879 
Q 2688 1106 2688 1447 
L 2688 1575 
L 2106 1575 
z
M 3816 1997 
L 3816 0 
L 2688 0 
L 2688 519 
Q 2463 200 2181 54 
Q 1900 -91 1497 -91 
Q 953 -91 614 226 
Q 275 544 275 1050 
Q 275 1666 698 1953 
Q 1122 2241 2028 2241 
L 2688 2241 
L 2688 2328 
Q 2688 2594 2478 2717 
Q 2269 2841 1825 2841 
Q 1466 2841 1156 2769 
Q 847 2697 581 2553 
L 581 3406 
Q 941 3494 1303 3539 
Q 1666 3584 2028 3584 
Q 2975 3584 3395 3211 
Q 3816 2838 3816 1997 
z
" transform="scale(0.015625)"/>
      <path id="DejaVuSans-Bold-62" d="M 2400 722 
Q 2759 722 2948 984 
Q 3138 1247 3138 1747 
Q 3138 2247 2948 2509 
Q 2759 2772 2400 2772 
Q 2041 2772 1848 2508 
Q 1656 2244 1656 1747 
Q 1656 1250 1848 986 
Q 2041 722 2400 722 
z
M 1656 2988 
Q 1888 3294 2169 3439 
Q 2450 3584 2816 3584 
Q 3463 3584 3878 3070 
Q 4294 2556 4294 1747 
Q 4294 938 3878 423 
Q 3463 -91 2816 -91 
Q 2450 -91 2169 54 
Q 1888 200 1656 506 
L 1656 0 
L 538 0 
L 538 4863 
L 1656 4863 
L 1656 2988 
z
" transform="scale(0.015625)"/>
      <path id="DejaVuSans-Bold-78" d="M 1422 1791 
L 159 3500 
L 1344 3500 
L 2059 2463 
L 2784 3500 
L 3969 3500 
L 2706 1797 
L 4031 0 
L 2847 0 
L 2059 1106 
L 1281 0 
L 97 0 
L 1422 1791 
z
" transform="scale(0.015625)"/>
      <path id="DejaVuSans-Bold-79" d="M 78 3500 
L 1197 3500 
L 2138 1125 
L 2938 3500 
L 4056 3500 
L 2584 -331 
Q 2363 -916 2067 -1148 
Q 1772 -1381 1288 -1381 
L 641 -1381 
L 641 -647 
L 991 -647 
Q 1275 -647 1404 -556 
Q 1534 -466 1606 -231 
L 1638 -134 
L 78 3500 
z
" transform="scale(0.015625)"/>
      <path id="DejaVuSans-Bold-6c" d="M 538 4863 
L 1656 4863 
L 1656 0 
L 538 0 
L 538 4863 
z
" transform="scale(0.015625)"/>
      <path id="DejaVuSans-Bold-74" d="M 1759 4494 
L 1759 3500 
L 2913 3500 
L 2913 2700 
L 1759 2700 
L 1759 1216 
Q 1759 972 1856 886 
Q 1953 800 2241 800 
L 2816 800 
L 2816 0 
L 1856 0 
Q 1194 0 917 276 
Q 641 553 641 1216 
L 641 2700 
L 84 2700 
L 84 3500 
L 641 3500 
L 641 4494 
L 1759 4494 
z
" transform="scale(0.015625)"/>
      <path id="DejaVuSans-Bold-64" d="M 2919 2988 
L 2919 4863 
L 4044 4863 
L 4044 0 
L 2919 0 
L 2919 506 
Q 2688 197 2409 53 
Q 2131 -91 1766 -91 
Q 1119 -91 703 423 
Q 288 938 288 1747 
Q 288 2556 703 3070 
Q 1119 3584 1766 3584 
Q 2128 3584 2408 3439 
Q 2688 3294 2919 2988 
z
M 2181 722 
Q 2541 722 2730 984 
Q 2919 1247 2919 1747 
Q 2919 2247 2730 2509 
Q 2541 2772 2181 2772 
Q 1825 2772 1636 2509 
Q 1447 2247 1447 1747 
Q 1447 1247 1636 984 
Q 1825 722 2181 722 
z
" transform="scale(0.015625)"/>
     </defs>
     <use xlink:href="#DejaVuSans-Bold-43"/>
     <use xlink:href="#DejaVuSans-Bold-39" x="73.388672"/>
     <use xlink:href="#DejaVuSans-Bold-48" x="142.96875"/>
     <use xlink:href="#DejaVuSans-Bold-31" x="226.660156"/>
     <use xlink:href="#DejaVuSans-Bold-34" x="296.240234"/>
     <use xlink:href="#DejaVuSans-Bold-4f" x="365.820312"/>
     <use xlink:href="#DejaVuSans-Bold-34" x="450.830078"/>
     <use xlink:href="#DejaVuSans-Bold-5f" x="520.410156"/>
     <use xlink:href="#DejaVuSans-Bold-63" x="570.410156"/>
     <use xlink:href="#DejaVuSans-Bold-69" x="629.6875"/>
     <use xlink:href="#DejaVuSans-Bold-73" x="663.964844"/>
     <use xlink:href="#DejaVuSans-Bold-2d" x="723.486328"/>
     <use xlink:href="#DejaVuSans-Bold-32" x="764.990234"/>
     <use xlink:href="#DejaVuSans-Bold-2d" x="834.570312"/>
     <use xlink:href="#DejaVuSans-Bold-43" x="876.074219"/>
     <use xlink:href="#DejaVuSans-Bold-61" x="949.462891"/>
     <use xlink:href="#DejaVuSans-Bold-72" x="1016.943359"/>
     <use xlink:href="#DejaVuSans-Bold-62" x="1066.259766"/>
     <use xlink:href="#DejaVuSans-Bold-6f" x="1137.841797"/>
     <use xlink:href="#DejaVuSans-Bold-78" x="1206.542969"/>
     <use xlink:href="#DejaVuSans-Bold-79" x="1271.044922"/>
     <use xlink:href="#DejaVuSans-Bold-63" x="1336.230469"/>
     <use xlink:href="#DejaVuSans-Bold-79" x="1395.507812"/>
     <use xlink:href="#DejaVuSans-Bold-63" x="1460.693359"/>
     <use xlink:href="#DejaVuSans-Bold-6c" x="1519.970703"/>
     <use xlink:href="#DejaVuSans-Bold-6f" x="1554.248047"/>
     <use xlink:href="#DejaVuSans-Bold-68" x="1622.949219"/>
     <use xlink:href="#DejaVuSans-Bold-65" x="1694.140625"/>
     <use xlink:href="#DejaVuSans-Bold-78" x="1761.962891"/>
     <use xlink:href="#DejaVuSans-Bold-79" x="1826.464844"/>
     <use xlink:href="#DejaVuSans-Bold-6c" x="1891.650391"/>
     <use xlink:href="#DejaVuSans-Bold-2d" x="1925.927734"/>
     <use xlink:href="#DejaVuSans-Bold-61" x="1967.431641"/>
     <use xlink:href="#DejaVuSans-Bold-63" x="2034.912109"/>
     <use xlink:href="#DejaVuSans-Bold-65" x="2094.189453"/>
     <use xlink:href="#DejaVuSans-Bold-74" x="2162.011719"/>
     <use xlink:href="#DejaVuSans-Bold-69" x="2209.814453"/>
     <use xlink:href="#DejaVuSans-Bold-63" x="2244.091797"/>
     <use xlink:href="#DejaVuSans-Bold-20" x="2303.369141"/>
     <use xlink:href="#DejaVuSans-Bold-61" x="2338.183594"/>
     <use xlink:href="#DejaVuSans-Bold-63" x="2405.664062"/>
     <use xlink:href="#DejaVuSans-Bold-69" x="2464.941406"/>
     <use xlink:href="#DejaVuSans-Bold-64" x="2499.21875"/>
     <use xlink:href="#DejaVuSans-Bold-5f" x="2570.800781"/>
     <use xlink:href="#DejaVuSans-Bold-2d" x="2620.800781"/>
     <use xlink:href="#DejaVuSans-Bold-31" x="2662.304688"/>
     <use xlink:href="#DejaVuSans-Bold-2e" x="2731.884766"/>
     <use xlink:href="#DejaVuSans-Bold-33" x="2769.873047"/>
     <use xlink:href="#DejaVuSans-Bold-37" x="2839.453125"/>
    </g>
   </g>
   <g id="text_15">
    <!-- C11H10ClN5O13P2_nan_0.81 -->
    <g style="fill: #ff0000" transform="translate(340.437894 486.823189) scale(0.1 -0.1)">
     <defs>
      <path id="DejaVuSans-Bold-35" d="M 678 4666 
L 3669 4666 
L 3669 3781 
L 1638 3781 
L 1638 3059 
Q 1775 3097 1914 3117 
Q 2053 3138 2203 3138 
Q 3056 3138 3531 2711 
Q 4006 2284 4006 1522 
Q 4006 766 3489 337 
Q 2972 -91 2053 -91 
Q 1656 -91 1267 -14 
Q 878 63 494 219 
L 494 1166 
Q 875 947 1217 837 
Q 1559 728 1863 728 
Q 2300 728 2551 942 
Q 2803 1156 2803 1522 
Q 2803 1891 2551 2103 
Q 2300 2316 1863 2316 
Q 1603 2316 1309 2248 
Q 1016 2181 678 2041 
L 678 4666 
z
" transform="scale(0.015625)"/>
      <path id="DejaVuSans-Bold-50" d="M 588 4666 
L 2584 4666 
Q 3475 4666 3951 4270 
Q 4428 3875 4428 3144 
Q 4428 2409 3951 2014 
Q 3475 1619 2584 1619 
L 1791 1619 
L 1791 0 
L 588 0 
L 588 4666 
z
M 1791 3794 
L 1791 2491 
L 2456 2491 
Q 2806 2491 2997 2661 
Q 3188 2831 3188 3144 
Q 3188 3456 2997 3625 
Q 2806 3794 2456 3794 
L 1791 3794 
z
" transform="scale(0.015625)"/>
     </defs>
     <use xlink:href="#DejaVuSans-Bold-43"/>
     <use xlink:href="#DejaVuSans-Bold-31" x="73.388672"/>
     <use xlink:href="#DejaVuSans-Bold-31" x="142.96875"/>
     <use xlink:href="#DejaVuSans-Bold-48" x="212.548828"/>
     <use xlink:href="#DejaVuSans-Bold-31" x="296.240234"/>
     <use xlink:href="#DejaVuSans-Bold-30" x="365.820312"/>
     <use xlink:href="#DejaVuSans-Bold-43" x="435.400391"/>
     <use xlink:href="#DejaVuSans-Bold-6c" x="508.789062"/>
     <use xlink:href="#DejaVuSans-Bold-4e" x="543.066406"/>
     <use xlink:href="#DejaVuSans-Bold-35" x="626.757812"/>
     <use xlink:href="#DejaVuSans-Bold-4f" x="696.337891"/>
     <use xlink:href="#DejaVuSans-Bold-31" x="781.347656"/>
     <use xlink:href="#DejaVuSans-Bold-33" x="850.927734"/>
     <use xlink:href="#DejaVuSans-Bold-50" x="920.507812"/>
     <use xlink:href="#DejaVuSans-Bold-32" x="993.798828"/>
     <use xlink:href="#DejaVuSans-Bold-5f" x="1063.378906"/>
     <use xlink:href="#DejaVuSans-Bold-6e" x="1113.378906"/>
     <use xlink:href="#DejaVuSans-Bold-61" x="1184.570312"/>
     <use xlink:href="#DejaVuSans-Bold-6e" x="1252.050781"/>
     <use xlink:href="#DejaVuSans-Bold-5f" x="1323.242188"/>
     <use xlink:href="#DejaVuSans-Bold-30" x="1373.242188"/>
     <use xlink:href="#DejaVuSans-Bold-2e" x="1442.822266"/>
     <use xlink:href="#DejaVuSans-Bold-38" x="1480.810547"/>
     <use xlink:href="#DejaVuSans-Bold-31" x="1550.390625"/>
    </g>
   </g>
   <g id="text_16">
    <!-- C6H15N4O5P_Phosphoarginine_0.39 -->
    <g style="fill: #ff0000" transform="translate(9.640052 288.212802) scale(0.1 -0.1)">
     <defs>
      <path id="DejaVuSans-Bold-36" d="M 2316 2303 
Q 2000 2303 1842 2098 
Q 1684 1894 1684 1484 
Q 1684 1075 1842 870 
Q 2000 666 2316 666 
Q 2634 666 2792 870 
Q 2950 1075 2950 1484 
Q 2950 1894 2792 2098 
Q 2634 2303 2316 2303 
z
M 3803 4544 
L 3803 3681 
Q 3506 3822 3243 3889 
Q 2981 3956 2731 3956 
Q 2194 3956 1894 3657 
Q 1594 3359 1544 2772 
Q 1750 2925 1990 3001 
Q 2231 3078 2516 3078 
Q 3231 3078 3670 2659 
Q 4109 2241 4109 1563 
Q 4109 813 3618 361 
Q 3128 -91 2303 -91 
Q 1394 -91 895 523 
Q 397 1138 397 2266 
Q 397 3422 980 4083 
Q 1563 4744 2578 4744 
Q 2900 4744 3203 4694 
Q 3506 4644 3803 4544 
z
" transform="scale(0.015625)"/>
     </defs>
     <use xlink:href="#DejaVuSans-Bold-43"/>
     <use xlink:href="#DejaVuSans-Bold-36" x="73.388672"/>
     <use xlink:href="#DejaVuSans-Bold-48" x="142.96875"/>
     <use xlink:href="#DejaVuSans-Bold-31" x="226.660156"/>
     <use xlink:href="#DejaVuSans-Bold-35" x="296.240234"/>
     <use xlink:href="#DejaVuSans-Bold-4e" x="365.820312"/>
     <use xlink:href="#DejaVuSans-Bold-34" x="449.511719"/>
     <use xlink:href="#DejaVuSans-Bold-4f" x="519.091797"/>
     <use xlink:href="#DejaVuSans-Bold-35" x="604.101562"/>
     <use xlink:href="#DejaVuSans-Bold-50" x="673.681641"/>
     <use xlink:href="#DejaVuSans-Bold-5f" x="746.972656"/>
     <use xlink:href="#DejaVuSans-Bold-50" x="796.972656"/>
     <use xlink:href="#DejaVuSans-Bold-68" x="870.263672"/>
     <use xlink:href="#DejaVuSans-Bold-6f" x="941.455078"/>
     <use xlink:href="#DejaVuSans-Bold-73" x="1010.15625"/>
     <use xlink:href="#DejaVuSans-Bold-70" x="1069.677734"/>
     <use xlink:href="#DejaVuSans-Bold-68" x="1141.259766"/>
     <use xlink:href="#DejaVuSans-Bold-6f" x="1212.451172"/>
     <use xlink:href="#DejaVuSans-Bold-61" x="1281.152344"/>
     <use xlink:href="#DejaVuSans-Bold-72" x="1348.632812"/>
     <use xlink:href="#DejaVuSans-Bold-67" x="1397.949219"/>
     <use xlink:href="#DejaVuSans-Bold-69" x="1469.53125"/>
     <use xlink:href="#DejaVuSans-Bold-6e" x="1503.808594"/>
     <use xlink:href="#DejaVuSans-Bold-69" x="1575"/>
     <use xlink:href="#DejaVuSans-Bold-6e" x="1609.277344"/>
     <use xlink:href="#DejaVuSans-Bold-65" x="1680.46875"/>
     <use xlink:href="#DejaVuSans-Bold-5f" x="1748.291016"/>
     <use xlink:href="#DejaVuSans-Bold-30" x="1798.291016"/>
     <use xlink:href="#DejaVuSans-Bold-2e" x="1867.871094"/>
     <use xlink:href="#DejaVuSans-Bold-33" x="1905.859375"/>
     <use xlink:href="#DejaVuSans-Bold-39" x="1975.439453"/>
    </g>
   </g>
   <g id="text_17">
    <!-- C10H11ClNO13P_nan_2.74 -->
    <g style="fill: #ff0000" transform="translate(382.114515 518.971425) scale(0.1 -0.1)">
     <use xlink:href="#DejaVuSans-Bold-43"/>
     <use xlink:href="#DejaVuSans-Bold-31" x="73.388672"/>
     <use xlink:href="#DejaVuSans-Bold-30" x="142.96875"/>
     <use xlink:href="#DejaVuSans-Bold-48" x="212.548828"/>
     <use xlink:href="#DejaVuSans-Bold-31" x="296.240234"/>
     <use xlink:href="#DejaVuSans-Bold-31" x="365.820312"/>
     <use xlink:href="#DejaVuSans-Bold-43" x="435.400391"/>
     <use xlink:href="#DejaVuSans-Bold-6c" x="508.789062"/>
     <use xlink:href="#DejaVuSans-Bold-4e" x="543.066406"/>
     <use xlink:href="#DejaVuSans-Bold-4f" x="626.757812"/>
     <use xlink:href="#DejaVuSans-Bold-31" x="711.767578"/>
     <use xlink:href="#DejaVuSans-Bold-33" x="781.347656"/>
     <use xlink:href="#DejaVuSans-Bold-50" x="850.927734"/>
     <use xlink:href="#DejaVuSans-Bold-5f" x="924.21875"/>
     <use xlink:href="#DejaVuSans-Bold-6e" x="974.21875"/>
     <use xlink:href="#DejaVuSans-Bold-61" x="1045.410156"/>
     <use xlink:href="#DejaVuSans-Bold-6e" x="1112.890625"/>
     <use xlink:href="#DejaVuSans-Bold-5f" x="1184.082031"/>
     <use xlink:href="#DejaVuSans-Bold-32" x="1234.082031"/>
     <use xlink:href="#DejaVuSans-Bold-2e" x="1303.662109"/>
     <use xlink:href="#DejaVuSans-Bold-37" x="1341.650391"/>
     <use xlink:href="#DejaVuSans-Bold-34" x="1411.230469"/>
    </g>
   </g>
   <g id="text_18">
    <!-- C15H15ClN2O4S_Xipamide_0.94 -->
    <g style="fill: #ff0000" transform="translate(70.299121 349.02608) scale(0.1 -0.1)">
     <defs>
      <path id="DejaVuSans-Bold-53" d="M 3834 4519 
L 3834 3531 
Q 3450 3703 3084 3790 
Q 2719 3878 2394 3878 
Q 1963 3878 1756 3759 
Q 1550 3641 1550 3391 
Q 1550 3203 1689 3098 
Q 1828 2994 2194 2919 
L 2706 2816 
Q 3484 2659 3812 2340 
Q 4141 2022 4141 1434 
Q 4141 663 3683 286 
Q 3225 -91 2284 -91 
Q 1841 -91 1394 -6 
Q 947 78 500 244 
L 500 1259 
Q 947 1022 1364 901 
Q 1781 781 2169 781 
Q 2563 781 2772 912 
Q 2981 1044 2981 1288 
Q 2981 1506 2839 1625 
Q 2697 1744 2272 1838 
L 1806 1941 
Q 1106 2091 782 2419 
Q 459 2747 459 3303 
Q 459 4000 909 4375 
Q 1359 4750 2203 4750 
Q 2588 4750 2994 4692 
Q 3400 4634 3834 4519 
z
" transform="scale(0.015625)"/>
      <path id="DejaVuSans-Bold-58" d="M 3188 2381 
L 4806 0 
L 3553 0 
L 2463 1594 
L 1381 0 
L 122 0 
L 1741 2381 
L 184 4666 
L 1441 4666 
L 2463 3163 
L 3481 4666 
L 4744 4666 
L 3188 2381 
z
" transform="scale(0.015625)"/>
      <path id="DejaVuSans-Bold-6d" d="M 3781 2919 
Q 3994 3244 4286 3414 
Q 4578 3584 4928 3584 
Q 5531 3584 5847 3212 
Q 6163 2841 6163 2131 
L 6163 0 
L 5038 0 
L 5038 1825 
Q 5041 1866 5042 1909 
Q 5044 1953 5044 2034 
Q 5044 2406 4934 2573 
Q 4825 2741 4581 2741 
Q 4263 2741 4089 2478 
Q 3916 2216 3909 1719 
L 3909 0 
L 2784 0 
L 2784 1825 
Q 2784 2406 2684 2573 
Q 2584 2741 2328 2741 
Q 2006 2741 1831 2477 
Q 1656 2213 1656 1722 
L 1656 0 
L 531 0 
L 531 3500 
L 1656 3500 
L 1656 2988 
Q 1863 3284 2130 3434 
Q 2397 3584 2719 3584 
Q 3081 3584 3359 3409 
Q 3638 3234 3781 2919 
z
" transform="scale(0.015625)"/>
     </defs>
     <use xlink:href="#DejaVuSans-Bold-43"/>
     <use xlink:href="#DejaVuSans-Bold-31" x="73.388672"/>
     <use xlink:href="#DejaVuSans-Bold-35" x="142.96875"/>
     <use xlink:href="#DejaVuSans-Bold-48" x="212.548828"/>
     <use xlink:href="#DejaVuSans-Bold-31" x="296.240234"/>
     <use xlink:href="#DejaVuSans-Bold-35" x="365.820312"/>
     <use xlink:href="#DejaVuSans-Bold-43" x="435.400391"/>
     <use xlink:href="#DejaVuSans-Bold-6c" x="508.789062"/>
     <use xlink:href="#DejaVuSans-Bold-4e" x="543.066406"/>
     <use xlink:href="#DejaVuSans-Bold-32" x="626.757812"/>
     <use xlink:href="#DejaVuSans-Bold-4f" x="696.337891"/>
     <use xlink:href="#DejaVuSans-Bold-34" x="781.347656"/>
     <use xlink:href="#DejaVuSans-Bold-53" x="850.927734"/>
     <use xlink:href="#DejaVuSans-Bold-5f" x="922.949219"/>
     <use xlink:href="#DejaVuSans-Bold-58" x="972.949219"/>
     <use xlink:href="#DejaVuSans-Bold-69" x="1050.048828"/>
     <use xlink:href="#DejaVuSans-Bold-70" x="1084.326172"/>
     <use xlink:href="#DejaVuSans-Bold-61" x="1155.908203"/>
     <use xlink:href="#DejaVuSans-Bold-6d" x="1223.388672"/>
     <use xlink:href="#DejaVuSans-Bold-69" x="1327.587891"/>
     <use xlink:href="#DejaVuSans-Bold-64" x="1361.865234"/>
     <use xlink:href="#DejaVuSans-Bold-65" x="1433.447266"/>
     <use xlink:href="#DejaVuSans-Bold-5f" x="1501.269531"/>
     <use xlink:href="#DejaVuSans-Bold-30" x="1551.269531"/>
     <use xlink:href="#DejaVuSans-Bold-2e" x="1620.849609"/>
     <use xlink:href="#DejaVuSans-Bold-39" x="1658.837891"/>
     <use xlink:href="#DejaVuSans-Bold-34" x="1728.417969"/>
    </g>
   </g>
   <g id="text_19">
    <!-- C25H14NO13PS_nan_0.03 -->
    <g style="fill: #ff0000" transform="translate(78.305153 266.596391) scale(0.1 -0.1)">
     <use xlink:href="#DejaVuSans-Bold-43"/>
     <use xlink:href="#DejaVuSans-Bold-32" x="73.388672"/>
     <use xlink:href="#DejaVuSans-Bold-35" x="142.96875"/>
     <use xlink:href="#DejaVuSans-Bold-48" x="212.548828"/>
     <use xlink:href="#DejaVuSans-Bold-31" x="296.240234"/>
     <use xlink:href="#DejaVuSans-Bold-34" x="365.820312"/>
     <use xlink:href="#DejaVuSans-Bold-4e" x="435.400391"/>
     <use xlink:href="#DejaVuSans-Bold-4f" x="519.091797"/>
     <use xlink:href="#DejaVuSans-Bold-31" x="604.101562"/>
     <use xlink:href="#DejaVuSans-Bold-33" x="673.681641"/>
     <use xlink:href="#DejaVuSans-Bold-50" x="743.261719"/>
     <use xlink:href="#DejaVuSans-Bold-53" x="816.552734"/>
     <use xlink:href="#DejaVuSans-Bold-5f" x="888.574219"/>
     <use xlink:href="#DejaVuSans-Bold-6e" x="938.574219"/>
     <use xlink:href="#DejaVuSans-Bold-61" x="1009.765625"/>
     <use xlink:href="#DejaVuSans-Bold-6e" x="1077.246094"/>
     <use xlink:href="#DejaVuSans-Bold-5f" x="1148.4375"/>
     <use xlink:href="#DejaVuSans-Bold-30" x="1198.4375"/>
     <use xlink:href="#DejaVuSans-Bold-2e" x="1268.017578"/>
     <use xlink:href="#DejaVuSans-Bold-30" x="1306.005859"/>
     <use xlink:href="#DejaVuSans-Bold-33" x="1375.585938"/>
    </g>
   </g>
   <g id="text_20">
    <!-- C6H2N2O12_nan_1.07 -->
    <g style="fill: #ff0000" transform="translate(356.236937 437.080105) scale(0.1 -0.1)">
     <use xlink:href="#DejaVuSans-Bold-43"/>
     <use xlink:href="#DejaVuSans-Bold-36" x="73.388672"/>
     <use xlink:href="#DejaVuSans-Bold-48" x="142.96875"/>
     <use xlink:href="#DejaVuSans-Bold-32" x="226.660156"/>
     <use xlink:href="#DejaVuSans-Bold-4e" x="296.240234"/>
     <use xlink:href="#DejaVuSans-Bold-32" x="379.931641"/>
     <use xlink:href="#DejaVuSans-Bold-4f" x="449.511719"/>
     <use xlink:href="#DejaVuSans-Bold-31" x="534.521484"/>
     <use xlink:href="#DejaVuSans-Bold-32" x="604.101562"/>
     <use xlink:href="#DejaVuSans-Bold-5f" x="673.681641"/>
     <use xlink:href="#DejaVuSans-Bold-6e" x="723.681641"/>
     <use xlink:href="#DejaVuSans-Bold-61" x="794.873047"/>
     <use xlink:href="#DejaVuSans-Bold-6e" x="862.353516"/>
     <use xlink:href="#DejaVuSans-Bold-5f" x="933.544922"/>
     <use xlink:href="#DejaVuSans-Bold-31" x="983.544922"/>
     <use xlink:href="#DejaVuSans-Bold-2e" x="1053.125"/>
     <use xlink:href="#DejaVuSans-Bold-30" x="1091.113281"/>
     <use xlink:href="#DejaVuSans-Bold-37" x="1160.693359"/>
    </g>
   </g>
   <g id="text_21">
    <!-- C10H13N4O8P_Inosine-monophosphate_0.79 -->
    <g style="fill: #ff0000" transform="translate(457.685821 170.35955) scale(0.1 -0.1)">
     <defs>
      <path id="DejaVuSans-Bold-49" d="M 588 4666 
L 1791 4666 
L 1791 0 
L 588 0 
L 588 4666 
z
" transform="scale(0.015625)"/>
     </defs>
     <use xlink:href="#DejaVuSans-Bold-43"/>
     <use xlink:href="#DejaVuSans-Bold-31" x="73.388672"/>
     <use xlink:href="#DejaVuSans-Bold-30" x="142.96875"/>
     <use xlink:href="#DejaVuSans-Bold-48" x="212.548828"/>
     <use xlink:href="#DejaVuSans-Bold-31" x="296.240234"/>
     <use xlink:href="#DejaVuSans-Bold-33" x="365.820312"/>
     <use xlink:href="#DejaVuSans-Bold-4e" x="435.400391"/>
     <use xlink:href="#DejaVuSans-Bold-34" x="519.091797"/>
     <use xlink:href="#DejaVuSans-Bold-4f" x="588.671875"/>
     <use xlink:href="#DejaVuSans-Bold-38" x="673.681641"/>
     <use xlink:href="#DejaVuSans-Bold-50" x="743.261719"/>
     <use xlink:href="#DejaVuSans-Bold-5f" x="816.552734"/>
     <use xlink:href="#DejaVuSans-Bold-49" x="866.552734"/>
     <use xlink:href="#DejaVuSans-Bold-6e" x="903.759766"/>
     <use xlink:href="#DejaVuSans-Bold-6f" x="974.951172"/>
     <use xlink:href="#DejaVuSans-Bold-73" x="1043.652344"/>
     <use xlink:href="#DejaVuSans-Bold-69" x="1103.173828"/>
     <use xlink:href="#DejaVuSans-Bold-6e" x="1137.451172"/>
     <use xlink:href="#DejaVuSans-Bold-65" x="1208.642578"/>
     <use xlink:href="#DejaVuSans-Bold-2d" x="1276.464844"/>
     <use xlink:href="#DejaVuSans-Bold-6d" x="1317.96875"/>
     <use xlink:href="#DejaVuSans-Bold-6f" x="1422.167969"/>
     <use xlink:href="#DejaVuSans-Bold-6e" x="1490.869141"/>
     <use xlink:href="#DejaVuSans-Bold-6f" x="1562.060547"/>
     <use xlink:href="#DejaVuSans-Bold-70" x="1630.761719"/>
     <use xlink:href="#DejaVuSans-Bold-68" x="1702.34375"/>
     <use xlink:href="#DejaVuSans-Bold-6f" x="1773.535156"/>
     <use xlink:href="#DejaVuSans-Bold-73" x="1842.236328"/>
     <use xlink:href="#DejaVuSans-Bold-70" x="1901.757812"/>
     <use xlink:href="#DejaVuSans-Bold-68" x="1973.339844"/>
     <use xlink:href="#DejaVuSans-Bold-61" x="2044.53125"/>
     <use xlink:href="#DejaVuSans-Bold-74" x="2112.011719"/>
     <use xlink:href="#DejaVuSans-Bold-65" x="2159.814453"/>
     <use xlink:href="#DejaVuSans-Bold-5f" x="2227.636719"/>
     <use xlink:href="#DejaVuSans-Bold-30" x="2277.636719"/>
     <use xlink:href="#DejaVuSans-Bold-2e" x="2347.216797"/>
     <use xlink:href="#DejaVuSans-Bold-37" x="2385.205078"/>
     <use xlink:href="#DejaVuSans-Bold-39" x="2454.785156"/>
    </g>
   </g>
   <g id="text_22">
    <!-- C14H27NO4_nan_0.69 -->
    <g style="fill: #ff0000" transform="translate(513.383443 18.550519) scale(0.1 -0.1)">
     <use xlink:href="#DejaVuSans-Bold-43"/>
     <use xlink:href="#DejaVuSans-Bold-31" x="73.388672"/>
     <use xlink:href="#DejaVuSans-Bold-34" x="142.96875"/>
     <use xlink:href="#DejaVuSans-Bold-48" x="212.548828"/>
     <use xlink:href="#DejaVuSans-Bold-32" x="296.240234"/>
     <use xlink:href="#DejaVuSans-Bold-37" x="365.820312"/>
     <use xlink:href="#DejaVuSans-Bold-4e" x="435.400391"/>
     <use xlink:href="#DejaVuSans-Bold-4f" x="519.091797"/>
     <use xlink:href="#DejaVuSans-Bold-34" x="604.101562"/>
     <use xlink:href="#DejaVuSans-Bold-5f" x="673.681641"/>
     <use xlink:href="#DejaVuSans-Bold-6e" x="723.681641"/>
     <use xlink:href="#DejaVuSans-Bold-61" x="794.873047"/>
     <use xlink:href="#DejaVuSans-Bold-6e" x="862.353516"/>
     <use xlink:href="#DejaVuSans-Bold-5f" x="933.544922"/>
     <use xlink:href="#DejaVuSans-Bold-30" x="983.544922"/>
     <use xlink:href="#DejaVuSans-Bold-2e" x="1053.125"/>
     <use xlink:href="#DejaVuSans-Bold-36" x="1091.113281"/>
     <use xlink:href="#DejaVuSans-Bold-39" x="1160.693359"/>
    </g>
   </g>
   <g id="legend_1">
    <g id="patch_17">
     <path d="M 580.801168 27.753882 
L 584.801168 27.753882 
Q 586.801168 27.753882 586.801168 25.753882 
L 586.801168 21.753882 
Q 586.801168 19.753882 584.801168 19.753882 
L 580.801168 19.753882 
Q 578.801168 19.753882 578.801168 21.753882 
L 578.801168 25.753882 
Q 578.801168 27.753882 580.801168 27.753882 
z
" style="fill: #e5e5e5; opacity: 0.8; stroke: #cccccc; stroke-width: 0.5; stroke-linejoin: miter"/>
    </g>
   </g>
  </g>
 </g>
 <defs>
  <clipPath id="p4ac68a199c">
   <rect x="102.402218" y="14.753882" width="489.39895" height="516.406118"/>
  </clipPath>
 </defs>
</svg>
